<svg width="63" height="26" viewBox="0 0 63 26" fill="none"
    xmlns="http://www.w3.org/2000/svg">
    <g clip-path="url(#clip0_104_1908)">
        <g filter="url(#filter0_d_104_1908)">
            <path d="M11.4473 3.45226L11.4481 3.45134C12.1672 2.58196 12.645 1.41205 12.5225 0.214759L12.5171 0.162964L12.4652 0.165351C11.4241 0.213226 10.1431 0.833422 9.40914 1.7055C8.73888 2.45601 8.1625 3.67383 8.30996 4.82652L8.31563 4.87079L8.36003 4.87442C9.54126 4.9706 10.7156 4.29827 11.4473 3.45226ZM12.4596 4.98863L12.4587 4.98857C11.6084 4.94075 10.8213 5.17695 10.1514 5.42226C10.0044 5.47609 9.86418 5.52988 9.73019 5.58131C9.55633 5.64804 9.3929 5.71076 9.23862 5.7643C8.96626 5.85884 8.7347 5.9201 8.54552 5.9201C8.35236 5.9201 8.13131 5.86711 7.88414 5.78507C7.70364 5.72517 7.51245 5.65095 7.31047 5.57254C7.23584 5.54358 7.15975 5.51404 7.08217 5.48444C6.51017 5.26617 5.86491 5.04728 5.18968 5.05925C3.4442 5.08312 1.82168 6.04904 0.931195 7.58644C0.0170301 9.12308 -0.0996681 11.0248 0.229039 12.8483C0.557824 14.6723 1.33334 16.4251 2.21288 17.6698C2.6412 18.2829 3.11496 18.9302 3.65255 19.4184C4.19041 19.9066 4.79817 20.2411 5.49411 20.2168C6.09894 20.1945 6.53518 20.0136 6.9774 19.8302C7.0112 19.8162 7.04503 19.8021 7.07897 19.7881C7.55632 19.5916 8.06137 19.4032 8.82309 19.4032C9.59019 19.4032 10.0827 19.6029 10.5562 19.8028C10.5687 19.8079 10.5812 19.8132 10.5937 19.8185C11.0556 20.0136 11.5086 20.2049 12.179 20.1932C12.8963 20.1812 13.4788 19.8664 13.9877 19.4036C14.4952 18.9419 14.933 18.3295 15.3609 17.717C16.2906 16.3935 16.6992 15.1017 16.7608 14.907C16.7642 14.8959 16.7666 14.8884 16.7679 14.8847L16.7791 14.8517L16.7543 14.8274C16.7492 14.8224 16.7441 14.8195 16.7431 14.8188H16.743C16.741 14.8176 16.7392 14.8167 16.7379 14.816C16.7353 14.8146 16.7322 14.8132 16.7291 14.8118C16.7266 14.8105 16.7236 14.8092 16.7202 14.8077C16.7155 14.8056 16.71 14.8032 16.7039 14.8004C16.683 14.791 16.6535 14.7778 16.6161 14.7602C16.5414 14.7252 16.436 14.6728 16.31 14.6014C16.0578 14.4585 15.7236 14.2392 15.3896 13.9273C14.7222 13.3043 14.0553 12.3126 14.0434 10.8215C14.021 8.47777 15.8858 7.28883 16.1912 7.09411C16.2104 7.08193 16.2233 7.07363 16.2294 7.06919L16.2726 7.0375L16.2421 6.99336C15.02 5.22587 13.1138 5.03598 12.4596 4.98863ZM22.1467 1.56862H22.0917V1.6237V20.0084V20.0635H22.1467H25.0672H25.1222V20.0084V13.778H29.1102C30.9691 13.778 32.5552 13.1546 33.677 12.0764C34.7989 10.998 35.4529 9.46786 35.4529 7.66154C35.4529 5.85552 34.8111 4.33134 33.7073 3.25872C32.6037 2.18623 31.0415 1.56862 29.2067 1.56862H22.1467ZM45.0459 17.9073V20.0084V20.0635H45.1009H47.8043H47.8592V20.0084V10.8573C47.8592 9.51408 47.3086 8.40721 46.3343 7.63745C45.3611 6.86867 43.9692 6.43898 42.289 6.43898C39.1711 6.43898 36.8408 8.18423 36.755 10.6077L36.7529 10.6648H36.8098H39.4408H39.4862L39.4948 10.6201C39.7055 9.52211 40.7491 8.78975 42.2045 8.78975C43.0902 8.78975 43.7729 8.9916 44.2333 9.37125C44.692 9.74951 44.9374 10.3104 44.9374 11.046V12.0083L41.3444 12.2175C39.6433 12.3181 38.3248 12.7087 37.4303 13.3766C36.5331 14.0464 36.067 14.9919 36.067 16.1877C36.067 17.3945 36.5475 18.4005 37.3732 19.1041C38.1981 19.8069 39.364 20.205 40.7321 20.205C42.5498 20.205 44.2435 19.3215 45.0459 17.9073ZM41.7491 14.2379H41.7492L44.9374 14.041V15.0202C44.9374 16.7027 43.475 17.9132 41.5166 17.9132C40.746 17.9132 40.1219 17.7322 39.6919 17.4181C39.2635 17.1054 39.0251 16.6587 39.0251 16.1168C39.0251 15.5569 39.2547 15.1168 39.7061 14.8015C40.1604 14.484 40.8427 14.2906 41.7491 14.2379ZM58.879 6.65429L55.4617 17.4451L52.0444 6.65429L52.0322 6.61587H51.9921H48.9387H48.8597L48.8871 6.69009L53.8285 20.0567L53.569 20.8522L53.5689 20.8523C53.3476 21.5364 53.0598 22.0024 52.6737 22.2981C52.2882 22.5936 51.7976 22.7247 51.1593 22.7247C50.9315 22.7247 50.4875 22.7011 50.3095 22.678L50.2474 22.6698V22.7325V24.9378V24.9796L50.2877 24.9909C50.3354 25.0041 50.4171 25.0148 50.5115 25.0236C50.6076 25.0325 50.7216 25.0399 50.8366 25.0458C51.0666 25.0576 51.3029 25.0636 51.4128 25.0636C52.8435 25.0636 53.9045 24.797 54.7553 24.1185C55.6044 23.4412 56.2363 22.3596 56.8227 20.7467L61.9519 6.68987L61.9788 6.61587H61.9002H58.9314H58.8912L58.879 6.65429ZM25.1222 4.08449H28.4344C29.6926 4.08449 30.6733 4.4123 31.339 5.02088C32.004 5.62878 32.362 6.52356 32.362 7.67333C32.362 8.82311 32.004 9.72086 31.3374 10.3317C30.6702 10.9432 29.6864 11.274 28.4223 11.274H25.1222V4.08449Z" fill="white" stroke="#000C33"/>
        </g>
    </g>
    <defs>
        <filter id="filter0_d_104_1908" x="-0.438232" y="-0.358185" width="71.1311" height="33.9218" filterUnits="userSpaceOnUse" color-interpolation-filters="sRGB">
            <feFlood flood-opacity="0" result="BackgroundImageFix"/>
            <feColorMatrix in="SourceAlpha" type="matrix" values="0 0 0 0 0 0 0 0 0 0 0 0 0 0 0 0 0 0 127 0" result="hardAlpha"/>
            <feOffset dx="8" dy="8"/>
            <feComposite in2="hardAlpha" operator="out"/>
            <feColorMatrix type="matrix" values="0 0 0 0 0 0 0 0 0 0.0470588 0 0 0 0 0.2 0 0 0 1 0"/>
            <feBlend mode="normal" in2="BackgroundImageFix" result="effect1_dropShadow_104_1908"/>
            <feBlend mode="normal" in="SourceGraphic" in2="effect1_dropShadow_104_1908" result="shape"/>
        </filter>
        <clipPath id="clip0_104_1908">
            <rect width="63" height="26" fill="white"/>
        </clipPath>
    </defs>
</svg>
