<svg width="34" height="34" viewBox="0 0 34 34" fill="none"
    xmlns="http://www.w3.org/2000/svg">
    <g clip-path="url(#clip0_104_2107)">
        <g clip-path="url(#clip1_104_2107)">
            <path d="M15.6262 12.0846C16.0411 11.6697 16.0411 10.9969 15.6262 10.582C15.2112 10.1671 14.5386 10.1671 14.1236 10.582L8.45695 16.2487C8.24948 16.4561 8.14575 16.7281 8.14575 17C8.14575 17.1441 8.17443 17.2815 8.22637 17.4067C8.27822 17.5319 8.35508 17.6494 8.45695 17.7512L14.1236 23.4179C14.5386 23.8328 15.2112 23.8328 15.6262 23.4179C16.0411 23.003 16.0411 22.3303 15.6262 21.9154L11.7734 18.0625H25.4999C26.0867 18.0625 26.5624 17.5868 26.5624 17C26.5624 16.4132 26.0867 15.9375 25.4999 15.9375H11.7734L15.6262 12.0846Z" fill="#303237"/>
        </g>
    </g>
    <defs>
        <clipPath id="clip0_104_2107">
            <rect width="34" height="34" fill="white"/>
        </clipPath>
        <clipPath id="clip1_104_2107">
            <rect width="34" height="34" fill="white"/>
        </clipPath>
    </defs>
</svg>
