<svg width="363" height="613" viewBox="0 0 363 613" fill="none"
    xmlns="http://www.w3.org/2000/svg">
    <g filter="url(#filter0_d_104_2082)">
        <path fill-rule="evenodd" clip-rule="evenodd" d="M10 13C10 8.58173 13.5817 5 18 5H345C349.418 5 353 8.58172 353 13V363.655C353 364.983 351.829 366 350.5 366C339.178 366 330 375.824 330 387.943C330 400.062 339.178 409.886 350.5 409.886C351.829 409.886 353 410.903 353 412.232V590C353 594.418 349.418 598 345 598H18C13.5817 598 10 594.418 10 590V411.33C10 410.52 10.6902 409.886 11.5 409.886C22.8218 409.886 32 400.062 32 387.943C32 375.824 22.8218 366 11.5 366C10.6902 366 10 365.366 10 364.556V13Z" fill="#303237"/>
    </g>
    <defs>
        <filter id="filter0_d_104_2082" x="0" y="0" width="363" height="613" filterUnits="userSpaceOnUse" color-interpolation-filters="sRGB">
            <feFlood flood-opacity="0" result="BackgroundImageFix"/>
            <feColorMatrix in="SourceAlpha" type="matrix" values="0 0 0 0 0 0 0 0 0 0 0 0 0 0 0 0 0 0 127 0" result="hardAlpha"/>
            <feOffset dy="5"/>
            <feGaussianBlur stdDeviation="5"/>
            <feColorMatrix type="matrix" values="0 0 0 0 0 0 0 0 0 0 0 0 0 0 0 0 0 0 0.08 0"/>
            <feBlend mode="normal" in2="BackgroundImageFix" result="effect1_dropShadow_104_2082"/>
            <feBlend mode="normal" in="SourceGraphic" in2="effect1_dropShadow_104_2082" result="shape"/>
        </filter>
    </defs>
</svg>
