<svg width="363" height="613" viewBox="0 0 363 613" fill="none"
    xmlns="http://www.w3.org/2000/svg">
    <g filter="url(#filter0_d_104_1766)">
        <path fill-rule="evenodd" clip-rule="evenodd" d="M10 13C10 8.58173 13.5817 5 18 5H345C349.418 5 353 8.58172 353 13V150.347C353 150.622 352.774 150.841 352.5 150.841C341.178 150.841 332 160.665 332 172.784C332 184.903 341.178 194.727 352.5 194.727C352.774 194.727 353 194.947 353 195.221V590C353 594.418 349.418 598 345 598H18C13.5817 598 10 594.418 10 590V195.221C10 194.947 10.2259 194.727 10.5 194.727C21.8218 194.727 31 184.903 31 172.784C31 160.665 21.8218 150.841 10.5 150.841C10.2259 150.841 10 150.622 10 150.347V13Z" fill="#303237"/>
    </g>
    <defs>
        <filter id="filter0_d_104_1766" x="0" y="0" width="363" height="613" filterUnits="userSpaceOnUse" color-interpolation-filters="sRGB">
            <feFlood flood-opacity="0" result="BackgroundImageFix"/>
            <feColorMatrix in="SourceAlpha" type="matrix" values="0 0 0 0 0 0 0 0 0 0 0 0 0 0 0 0 0 0 127 0" result="hardAlpha"/>
            <feOffset dy="5"/>
            <feGaussianBlur stdDeviation="5"/>
            <feColorMatrix type="matrix" values="0 0 0 0 0 0 0 0 0 0 0 0 0 0 0 0 0 0 0.08 0"/>
            <feBlend mode="normal" in2="BackgroundImageFix" result="effect1_dropShadow_104_1766"/>
            <feBlend mode="normal" in="SourceGraphic" in2="effect1_dropShadow_104_1766" result="shape"/>
        </filter>
    </defs>
</svg>
