<svg width="29" height="28" viewBox="0 0 29 28" fill="none"
    xmlns="http://www.w3.org/2000/svg">
    <path fill-rule="evenodd" clip-rule="evenodd" d="M17.0325 18.02C13.9405 20.4964 9.41448 20.3015 6.54823 17.4353C3.47285 14.3599 3.47285 9.37373 6.54823 6.29836C9.62361 3.22298 14.6098 3.22298 17.6852 6.29836C20.5514 9.1646 20.7463 13.6906 18.2699 16.7826L24.2848 22.7975C24.6265 23.1392 24.6265 23.6932 24.2848 24.0349C23.9431 24.3766 23.3891 24.3766 23.0474 24.0349L17.0325 18.02ZM7.78567 16.1979C5.39371 13.8059 5.39371 9.92775 7.78567 7.53579C10.1776 5.14383 14.0558 5.14383 16.4477 7.53579C18.8379 9.926 18.8397 13.8002 16.453 16.1926C16.4512 16.1943 16.4495 16.1961 16.4477 16.1978C16.446 16.1996 16.4442 16.2013 16.4425 16.2031C14.0501 18.5898 10.1759 18.5881 7.78567 16.1979Z" fill="#6E7073"/>
</svg>
