<svg width="24" height="24" viewBox="0 0 24 24" fill="none"
    xmlns="http://www.w3.org/2000/svg">
    <path d="M3.1765 20.4965C3.201 20.499 3.226 20.5 3.2505 20.5C3.6045 20.5 3.9145 20.2505 3.9855 19.897C5.0345 14.649 10.504 14.2755 13 14.3915V18.25C13 18.553 13.1825 18.8265 13.463 18.943C13.743 19.0585 14.0655 18.995 14.2805 18.7805L21.2805 11.7805C21.5735 11.488 21.5735 11.0125 21.2805 10.72L14.2805 3.72C14.066 3.5055 13.7435 3.441 13.463 3.5575C13.1825 3.673 13 3.9465 13 4.25V8.0975C10.1835 8.4655 2.5 10.3335 2.5 19.75C2.5 20.1355 2.7925 20.4585 3.1765 20.4965Z" fill="white"/>
</svg>
