<svg width="28" height="28" viewBox="0 0 28 28" fill="none"
    xmlns="http://www.w3.org/2000/svg">
    <path d="M16.0954 4.82548C14.9492 3.64175 13.0508 3.64175 11.9046 4.82547L6.30641 10.6072C5.98489 10.9392 5.76884 11.359 5.68548 11.8136C5.00559 15.5212 4.9554 19.3169 5.53703 23.0413L5.74295 24.3598C5.80799 24.7763 6.16669 25.0833 6.58822 25.0833H10.5C10.8222 25.0833 11.0833 24.8222 11.0833 24.5V16.3333H16.9167V24.5C16.9167 24.8222 17.1778 25.0833 17.5 25.0833H21.4117C21.8333 25.0833 22.192 24.7763 22.257 24.3598L22.4629 23.0413C23.0446 19.3169 22.9944 15.5212 22.3145 11.8136C22.2311 11.359 22.0151 10.9392 21.6936 10.6072L16.0954 4.82548Z" fill="#303237"/>
</svg>
