<svg width="30" height="30" viewBox="0 0 30 30" fill="none"
    xmlns="http://www.w3.org/2000/svg">
    <g clip-path="url(#clip0_104_2112)">
        <path fill-rule="evenodd" clip-rule="evenodd" d="M4.0625 12.5373C4.0625 9.16163 7.02392 6.5625 10.5 6.5625C12.2918 6.5625 13.8685 7.40268 15 8.48979C16.1315 7.40268 17.7081 6.5625 19.5 6.5625C22.9761 6.5625 25.9375 9.16163 25.9375 12.5373C25.9375 14.8496 24.9514 16.883 23.5853 18.6019C22.2214 20.3179 20.4375 21.7741 18.7294 22.9575C18.0769 23.4095 17.4169 23.8264 16.8129 24.134C16.2456 24.4229 15.5934 24.6875 15 24.6875C14.4066 24.6875 13.7544 24.4229 13.1871 24.134C12.5831 23.8264 11.9231 23.4095 11.2707 22.9575C9.56256 21.7741 7.77859 20.3179 6.41478 18.6019C5.0486 16.883 4.0625 14.8496 4.0625 12.5373ZM10.5 8.4375C7.90094 8.4375 5.9375 10.3489 5.9375 12.5373C5.9375 14.2916 6.68224 15.925 7.88261 17.4353C9.08535 18.9485 10.7036 20.2836 12.3384 21.4162C12.957 21.8447 13.5396 22.2094 14.0381 22.4633C14.5732 22.7358 14.8834 22.8125 15 22.8125C15.1166 22.8125 15.4268 22.7358 15.9619 22.4633C16.4604 22.2094 17.043 21.8447 17.6616 21.4162C19.2964 20.2836 20.9146 18.9485 22.1174 17.4353C23.3177 15.925 24.0625 14.2916 24.0625 12.5373C24.0625 10.3489 22.099 8.4375 19.5 8.4375C18.0073 8.4375 16.6135 9.32928 15.7432 10.4612C15.5658 10.692 15.2911 10.8272 15 10.8272C14.7089 10.8272 14.4342 10.692 14.2568 10.4612C13.3865 9.32928 11.9927 8.4375 10.5 8.4375Z" fill="#303237"/>
    </g>
    <defs>
        <clipPath id="clip0_104_2112">
            <rect width="30" height="30" fill="white"/>
        </clipPath>
    </defs>
</svg>
