<svg width="40" height="40" viewBox="0 0 40 40" fill="none"
    xmlns="http://www.w3.org/2000/svg">
    <rect width="40" height="40" rx="10" fill="#F7F7F7"/>
    <g clip-path="url(#clip0_104_2124)">
        <g clip-path="url(#clip1_104_2124)">
            <path fill-rule="evenodd" clip-rule="evenodd" d="M15.25 18C15.25 15.3767 17.3766 13.25 20 13.25C22.6234 13.25 24.75 15.3767 24.75 18C24.75 20.6234 22.6234 22.75 20 22.75C17.3766 22.75 15.25 20.6234 15.25 18ZM20 14.75C18.2051 14.75 16.75 16.2051 16.75 18C16.75 19.7949 18.2051 21.25 20 21.25C21.795 21.25 23.25 19.7949 23.25 18C23.25 16.2051 21.795 14.75 20 14.75Z" fill="#303237"/>
            <path fill-rule="evenodd" clip-rule="evenodd" d="M11.5244 16.8568C11.8787 12.5582 15.4709 9.25 19.7841 9.25H20.216C24.5292 9.25 28.1213 12.5582 28.4757 16.8568C28.666 19.166 27.9527 21.4589 26.4861 23.2526L21.693 29.1144C20.818 30.1845 19.1821 30.1845 18.307 29.1144L13.514 23.2526C12.0473 21.4589 11.334 19.166 11.5244 16.8568ZM19.7841 10.75C16.2515 10.75 13.3095 13.4595 13.0193 16.9801C12.8609 18.9019 13.4545 20.8102 14.6752 22.3031L19.4683 28.1649C19.7431 28.501 20.2569 28.501 20.5318 28.1649L25.3248 22.3031C26.5455 20.8102 27.1391 18.9019 26.9807 16.9801C26.6905 13.4595 23.7485 10.75 20.216 10.75H19.7841Z" fill="#303237"/>
        </g>
    </g>
    <defs>
        <clipPath id="clip0_104_2124">
            <rect width="24" height="24" fill="white" transform="translate(8 8)"/>
        </clipPath>
        <clipPath id="clip1_104_2124">
            <rect width="24" height="24" fill="white" transform="translate(8 8)"/>
        </clipPath>
    </defs>
</svg>
