<svg width="29" height="28" viewBox="0 0 29 28" fill="none"
    xmlns="http://www.w3.org/2000/svg">
    <path fill-rule="evenodd" clip-rule="evenodd" d="M14.7501 5.54166C10.0787 5.54166 6.29175 9.32858 6.29175 14C6.29175 18.6714 10.0787 22.4583 14.7501 22.4583C19.4215 22.4583 23.2084 18.6714 23.2084 14C23.2084 9.32858 19.4215 5.54166 14.7501 5.54166ZM4.54175 14C4.54175 8.36208 9.11217 3.79166 14.7501 3.79166C20.388 3.79166 24.9584 8.36208 24.9584 14C24.9584 19.6379 20.388 24.2083 14.7501 24.2083C9.11217 24.2083 4.54175 19.6379 4.54175 14Z" fill="#6E7073"/>
    <path fill-rule="evenodd" clip-rule="evenodd" d="M13.4082 10.8602C12.319 11.7562 11.5914 13.0166 11.3599 14.4078L10.849 17.4795C10.5837 19.0745 12.4384 20.1453 13.6871 19.118L16.0918 17.1397C17.1809 16.2437 17.9086 14.9834 18.14 13.5921L18.6509 10.5205C18.9162 8.92539 17.0615 7.85458 15.8128 8.8819L13.4082 10.8602ZM14.7501 12.25C13.7836 12.25 13.0001 13.0335 13.0001 14C13.0001 14.9665 13.7836 15.75 14.7501 15.75C15.7166 15.75 16.5001 14.9665 16.5001 14C16.5001 13.0335 15.7166 12.25 14.7501 12.25Z" fill="#6E7073"/>
</svg>
