<svg width="41" height="26" viewBox="0 0 41 26" fill="none"
    xmlns="http://www.w3.org/2000/svg">
    <rect width="41" height="26" rx="4" fill="white" fill-opacity="0.08"/>
    <path fill-rule="evenodd" clip-rule="evenodd" d="M21.5 6.75C21.5 6.55109 21.421 6.36032 21.2803 6.21967C21.1397 6.07902 20.9489 6 20.75 6C20.5511 6 20.3603 6.07902 20.2197 6.21967C20.079 6.36032 20 6.55109 20 6.75V12H14.75C14.5511 12 14.3603 12.079 14.2197 12.2197C14.079 12.3603 14 12.5511 14 12.75C14 12.9489 14.079 13.1397 14.2197 13.2803C14.3603 13.421 14.5511 13.5 14.75 13.5H20V18.75C20 18.9489 20.079 19.1397 20.2197 19.2803C20.3603 19.421 20.5511 19.5 20.75 19.5C20.9489 19.5 21.1397 19.421 21.2803 19.2803C21.421 19.1397 21.5 18.9489 21.5 18.75V13.5H26.75C26.9489 13.5 27.1397 13.421 27.2803 13.2803C27.421 13.1397 27.5 12.9489 27.5 12.75C27.5 12.5511 27.421 12.3603 27.2803 12.2197C27.1397 12.079 26.9489 12 26.75 12H21.5V6.75Z" fill="white" fill-opacity="0.64"/>
</svg>
