<svg width="25" height="24" viewBox="0 0 25 24" fill="none"
    xmlns="http://www.w3.org/2000/svg">
    <g clip-path="url(#clip0_104_2284)">
        <g clip-path="url(#clip1_104_2284)">
            <path fill-rule="evenodd" clip-rule="evenodd" d="M14.7 5.5C14.7 3.70507 16.1551 2.25 17.95 2.25C19.7449 2.25 21.2 3.70507 21.2 5.5C21.2 7.29493 19.7449 8.75 17.95 8.75C16.9904 8.75 16.1279 8.33409 15.533 7.6727L12.8157 9.15487L9.7751 10.8923C10.0455 11.3664 10.2 11.9152 10.2 12.5C10.2 12.7963 10.1603 13.0834 10.086 13.3562L15.533 16.3273C16.1279 15.6659 16.9904 15.25 17.95 15.25C19.7449 15.25 21.2 16.7051 21.2 18.5C21.2 20.2949 19.7449 21.75 17.95 21.75C16.1551 21.75 14.7 20.2949 14.7 18.5C14.7 18.2036 14.7397 17.9166 14.814 17.6438L9.36699 14.6727C8.77207 15.3341 7.90958 15.75 6.94995 15.75C5.15502 15.75 3.69995 14.2949 3.69995 12.5C3.69995 10.7051 5.15502 9.25 6.94995 9.25C7.60063 9.25 8.20665 9.44122 8.71487 9.77052L12.0843 7.84514L14.814 6.35625C14.7397 6.08344 14.7 5.79635 14.7 5.5ZM17.95 3.75C16.9835 3.75 16.2 4.5335 16.2 5.5C16.2 6.4665 16.9835 7.25 17.95 7.25C18.9165 7.25 19.7 6.4665 19.7 5.5C19.7 4.5335 18.9165 3.75 17.95 3.75ZM6.94995 10.75C5.98345 10.75 5.19995 11.5335 5.19995 12.5C5.19995 13.4665 5.98345 14.25 6.94995 14.25C7.91645 14.25 8.69995 13.4665 8.69995 12.5C8.69995 11.5335 7.91645 10.75 6.94995 10.75ZM16.2 18.5C16.2 17.5335 16.9835 16.75 17.95 16.75C18.9165 16.75 19.7 17.5335 19.7 18.5C19.7 19.4665 18.9165 20.25 17.95 20.25C16.9835 20.25 16.2 19.4665 16.2 18.5Z" fill="#376FFF"/>
        </g>
    </g>
    <defs>
        <clipPath id="clip0_104_2284">
            <rect width="24" height="24" fill="white" transform="translate(0.449951)"/>
        </clipPath>
        <clipPath id="clip1_104_2284">
            <rect width="24" height="24" fill="white" transform="translate(0.449951)"/>
        </clipPath>
    </defs>
</svg>
