<svg width="40" height="40" viewBox="0 0 40 40" fill="none"
    xmlns="http://www.w3.org/2000/svg">
    <rect width="40" height="40" rx="10" fill="#F7F7F7"/>
    <g clip-path="url(#clip0_104_2117)">
        <g clip-path="url(#clip1_104_2117)">
            <path d="M20.75 15C20.75 14.5858 20.4142 14.25 20 14.25C19.5858 14.25 19.25 14.5858 19.25 15V20C19.25 20.2586 19.3832 20.4989 19.6025 20.636L22.6025 22.511C22.9538 22.7305 23.4165 22.6238 23.636 22.2725C23.8555 21.9212 23.7488 21.4585 23.3975 21.239L20.75 19.5843V15Z" fill="#303237"/>
            <path fill-rule="evenodd" clip-rule="evenodd" d="M20 11.25C15.1675 11.25 11.25 15.1675 11.25 20C11.25 24.8325 15.1675 28.75 20 28.75C24.8325 28.75 28.75 24.8325 28.75 20C28.75 15.1675 24.8325 11.25 20 11.25ZM12.75 20C12.75 15.9959 15.9959 12.75 20 12.75C24.0041 12.75 27.25 15.9959 27.25 20C27.25 24.0041 24.0041 27.25 20 27.25C15.9959 27.25 12.75 24.0041 12.75 20Z" fill="#303237"/>
        </g>
    </g>
    <defs>
        <clipPath id="clip0_104_2117">
            <rect width="24" height="24" fill="white" transform="translate(8 8)"/>
        </clipPath>
        <clipPath id="clip1_104_2117">
            <rect width="24" height="24" fill="white" transform="translate(8 8)"/>
        </clipPath>
    </defs>
</svg>
