<svg width="17" height="16" viewBox="0 0 17 16" fill="none"
    xmlns="http://www.w3.org/2000/svg">
    <path d="M2.30307 1.984C1.22574 1.984 0.659912 2.64143 0.659912 3.62716V12.3548C0.659912 13.3405 1.22574 13.9979 2.30307 13.9979H15.0168C16.0941 13.9979 16.6599 13.3405 16.6599 12.3548V3.62716C16.6599 2.64143 16.0941 1.984 15.0168 1.984H2.30307Z" fill="#D9D6CC"/>
    <path d="M2.43288 2.65762C1.58012 2.65762 1.32617 3.16868 1.32617 3.8035V7.98116L5.08954 7.98812C6.09498 7.99 6.50665 8.39448 6.92562 8.96047C7.03233 9.1046 7.16212 9.29997 7.28888 9.42682C7.66733 9.80568 8.16365 9.99492 8.66 9.99492C9.15634 9.99492 9.65264 9.80568 10.0311 9.42682C10.1579 9.29997 10.2877 9.1046 10.3944 8.96047C10.8133 8.3945 11.225 7.99 12.2304 7.98812L15.9938 7.98116V3.80352C15.9938 3.16871 15.7399 2.65764 14.8871 2.65764L2.43288 2.65762Z" fill="#F16D5E"/>
    <path d="M2.43288 2.65762C1.58012 2.65762 1.32617 3.16868 1.32617 3.8035V5.14195C1.32617 4.50714 1.58012 3.9961 2.43288 3.9961H14.8871C15.7399 3.9961 15.9938 4.50714 15.9938 5.14198V3.80352C15.9938 3.16868 15.7399 2.65762 14.8871 2.65762H2.43288Z" fill="#3295C9"/>
    <mask id="mask0_104_1999" style="mask-type:luminance" maskUnits="userSpaceOnUse" x="1" y="2" width="15" height="4">
        <path d="M2.43288 2.65762C1.58015 2.65762 1.32617 3.16866 1.32617 3.8035V5.14195C1.32617 4.50714 1.58015 3.9961 2.43288 3.9961H14.8871C15.7399 3.9961 15.9938 4.50714 15.9938 5.14195V3.8035C15.9938 3.16866 15.7399 2.65762 14.8871 2.65762H2.43288Z" fill="white"/>
    </mask>
    <g mask="url(#mask0_104_1999)">
        <path d="M2.43288 3.99608C1.58015 3.99608 1.32617 4.50716 1.32617 5.14198V6.48045C1.32617 5.84564 1.58015 5.33457 2.43288 5.33457H14.8871C15.7399 5.33457 15.9938 5.84564 15.9938 6.48045V5.142C15.9938 4.50716 15.7399 3.99612 14.8871 3.99612L2.43288 3.99608Z" fill="black" fill-opacity="0.318"/>
    </g>
    <path d="M2.43288 3.99609C1.58012 3.99609 1.32617 4.50713 1.32617 5.14197V6.48042C1.32617 5.84561 1.58012 5.33455 2.43288 5.33455H14.8871C15.7399 5.33455 15.9938 5.84561 15.9938 6.48042V5.14197C15.9938 4.50713 15.7399 3.99609 14.8871 3.99609H2.43288Z" fill="#FCAD00"/>
    <path d="M2.43288 5.33455C1.58012 5.33455 1.32617 5.84561 1.32617 6.48043V7.81888C1.32617 7.18406 1.58012 6.67302 2.43288 6.67302H14.8871C15.7399 6.67302 15.9938 7.18406 15.9938 7.8189V6.48045C15.9938 5.84561 15.7399 5.33455 14.8871 5.33455H2.43288Z" fill="#50BE3D"/>
    <path d="M0.659912 7.00049H1.32609V7.98116H0.659912V7.00049Z" fill="url(#paint0_linear_104_1999)"/>
    <path d="M15.9937 7.00049H16.6598V7.98116H15.9937V7.00049Z" fill="url(#paint1_linear_104_1999)"/>
    <defs>
        <linearGradient id="paint0_linear_104_1999" x1="0.659912" y1="105.068" x2="0.659912" y2="54.2375" gradientUnits="userSpaceOnUse">
            <stop stop-color="#CBC9BE"/>
            <stop offset="1" stop-color="#C8C5BB" stop-opacity="0"/>
        </linearGradient>
        <linearGradient id="paint1_linear_104_1999" x1="15.9937" y1="105.068" x2="15.9937" y2="54.2375" gradientUnits="userSpaceOnUse">
            <stop stop-color="#CBC9BE"/>
            <stop offset="1" stop-color="#C8C5BB" stop-opacity="0"/>
        </linearGradient>
    </defs>
</svg>
