<svg width="307" height="7" viewBox="0 0 307 7" fill="none"
    xmlns="http://www.w3.org/2000/svg">
    <path d="M1 6L7.1 1L13.2 6L19.3 1L25.4 6L31.5 1L37.6 6L43.7 1L49.8 6L55.9 1L62 6L68.1 1L74.2 6L80.3 1L86.4 6L92.5 1L98.6 6L104.7 1L110.8 6L116.9 1L123 6L129.1 1L135.2 6L141.3 1L147.4 6L153.5 1L159.6 6L165.7 1L171.8 6L177.9 1L184 6L190.1 1L196.2 6L202.3 1L208.4 6L214.5 1L220.6 6L226.7 1L232.8 6L238.9 1L245 6L251.1 1L257.2 6L263.3 1L269.4 6L275.5 1L281.6 6L287.7 1L293.8 6L299.9 1L306 6" stroke="#F5F5F5" stroke-width="1.5"/>
</svg>
